<?xml version="1.0" encoding="UTF-8"?>
<svg
  xmlns="http://www.w3.org/2000/svg"
  xmlns:xlink="http://www.w3.org/1999/xlink"
  width="0"
  height="0"
>
  <defs>
    <symbol viewBox="0 0 15 15" fill="none" id="sun">
      <path
        fill-rule="evenodd"
        clip-rule="evenodd"
        d="M7.5 0C7.77614 0 8 0.223858 8 0.5V2.5C8 2.77614 7.77614 3 7.5 3C7.22386 3 7 2.77614 7 2.5V0.5C7 0.223858 7.22386 0 7.5 0ZM2.1967 2.1967C2.39196 2.00144 2.70854 2.00144 2.90381 2.1967L4.31802 3.61091C4.51328 3.80617 4.51328 4.12276 4.31802 4.31802C4.12276 4.51328 3.80617 4.51328 3.61091 4.31802L2.1967 2.90381C2.00144 2.70854 2.00144 2.39196 2.1967 2.1967ZM0.5 7C0.223858 7 0 7.22386 0 7.5C0 7.77614 0.223858 8 0.5 8H2.5C2.77614 8 3 7.77614 3 7.5C3 7.22386 2.77614 7 2.5 7H0.5ZM2.1967 12.8033C2.00144 12.608 2.00144 12.2915 2.1967 12.0962L3.61091 10.682C3.80617 10.4867 4.12276 10.4867 4.31802 10.682C4.51328 10.8772 4.51328 11.1938 4.31802 11.3891L2.90381 12.8033C2.70854 12.9986 2.39196 12.9986 2.1967 12.8033ZM12.5 7C12.2239 7 12 7.22386 12 7.5C12 7.77614 12.2239 8 12.5 8H14.5C14.7761 8 15 7.77614 15 7.5C15 7.22386 14.7761 7 14.5 7H12.5ZM10.682 4.31802C10.4867 4.12276 10.4867 3.80617 10.682 3.61091L12.0962 2.1967C12.2915 2.00144 12.608 2.00144 12.8033 2.1967C12.9986 2.39196 12.9986 2.70854 12.8033 2.90381L11.3891 4.31802C11.1938 4.51328 10.8772 4.51328 10.682 4.31802ZM8 12.5C8 12.2239 7.77614 12 7.5 12C7.22386 12 7 12.2239 7 12.5V14.5C7 14.7761 7.22386 15 7.5 15C7.77614 15 8 14.7761 8 14.5V12.5ZM10.682 10.682C10.8772 10.4867 11.1938 10.4867 11.3891 10.682L12.8033 12.0962C12.9986 12.2915 12.9986 12.608 12.8033 12.8033C12.608 12.9986 12.2915 12.9986 12.0962 12.8033L10.682 11.3891C10.4867 11.1938 10.4867 10.8772 10.682 10.682ZM5.5 7.5C5.5 6.39543 6.39543 5.5 7.5 5.5C8.60457 5.5 9.5 6.39543 9.5 7.5C9.5 8.60457 8.60457 9.5 7.5 9.5C6.39543 9.5 5.5 8.60457 5.5 7.5ZM7.5 4.5C5.84315 4.5 4.5 5.84315 4.5 7.5C4.5 9.15685 5.84315 10.5 7.5 10.5C9.15685 10.5 10.5 9.15685 10.5 7.5C10.5 5.84315 9.15685 4.5 7.5 4.5Z"
        fill="currentColor"
      ></path>
    </symbol>
    <symbol viewBox="0 0 15 15" fill="none" id="stack">
      <path
        fill-rule="evenodd"
        clip-rule="evenodd"
        d="M7.75432 1.81954C7.59742 1.72682 7.4025 1.72682 7.24559 1.81954L1.74559 5.06954C1.59336 5.15949 1.49996 5.32317 1.49996 5.5C1.49996 5.67683 1.59336 5.84051 1.74559 5.93046L7.24559 9.18046C7.4025 9.27318 7.59742 9.27318 7.75432 9.18046L13.2543 5.93046C13.4066 5.84051 13.5 5.67683 13.5 5.5C13.5 5.32317 13.4066 5.15949 13.2543 5.06954L7.75432 1.81954ZM7.49996 8.16923L2.9828 5.5L7.49996 2.83077L12.0171 5.5L7.49996 8.16923ZM2.25432 8.31954C2.01658 8.17906 1.70998 8.2579 1.56949 8.49564C1.42901 8.73337 1.50785 9.03998 1.74559 9.18046L7.24559 12.4305C7.4025 12.5232 7.59742 12.5232 7.75432 12.4305L13.2543 9.18046C13.4921 9.03998 13.5709 8.73337 13.4304 8.49564C13.2899 8.2579 12.9833 8.17906 12.7456 8.31954L7.49996 11.4192L2.25432 8.31954Z"
        fill="currentColor"
      ></path>
    </symbol>
    <symbol viewBox="0 0 15 15" fill="none" id="rocket">
      <path
        fill-rule="evenodd"
        clip-rule="evenodd"
        d="M6.85357 3.85355L7.65355 3.05353C8.2981 2.40901 9.42858 1.96172 10.552 1.80125C11.1056 1.72217 11.6291 1.71725 12.0564 1.78124C12.4987 1.84748 12.7698 1.97696 12.8965 2.10357C13.0231 2.23018 13.1526 2.50125 13.2188 2.94357C13.2828 3.37086 13.2779 3.89439 13.1988 4.44801C13.0383 5.57139 12.591 6.70188 11.9464 7.34645L7.49999 11.7929L6.35354 10.6465C6.15827 10.4512 5.84169 10.4512 5.64643 10.6465C5.45117 10.8417 5.45117 11.1583 5.64643 11.3536L7.14644 12.8536C7.34171 13.0488 7.65829 13.0488 7.85355 12.8536L8.40073 12.3064L9.57124 14.2572C9.65046 14.3893 9.78608 14.4774 9.9389 14.4963C10.0917 14.5151 10.2447 14.4624 10.3535 14.3536L12.3535 12.3536C12.4648 12.2423 12.5172 12.0851 12.495 11.9293L12.0303 8.67679L12.6536 8.05355C13.509 7.19808 14.0117 5.82855 14.1887 4.58943C14.2784 3.9618 14.2891 3.33847 14.2078 2.79546C14.1287 2.26748 13.9519 1.74482 13.6035 1.39645C13.2552 1.04809 12.7325 0.871332 12.2045 0.792264C11.6615 0.710945 11.0382 0.721644 10.4105 0.8113C9.17143 0.988306 7.80189 1.491 6.94644 2.34642L6.32322 2.96968L3.07071 2.50504C2.91492 2.48278 2.75773 2.53517 2.64645 2.64646L0.646451 4.64645C0.537579 4.75533 0.484938 4.90829 0.50375 5.0611C0.522563 5.21391 0.61073 5.34954 0.742757 5.42876L2.69364 6.59928L2.14646 7.14645C2.0527 7.24022 2.00002 7.3674 2.00002 7.50001C2.00002 7.63261 2.0527 7.75979 2.14646 7.85356L3.64647 9.35356C3.84173 9.54883 4.15831 9.54883 4.35357 9.35356C4.54884 9.1583 4.54884 8.84172 4.35357 8.64646L3.20712 7.50001L3.85357 6.85356L6.85357 3.85355ZM10.0993 13.1936L9.12959 11.5775L11.1464 9.56067L11.4697 11.8232L10.0993 13.1936ZM3.42251 5.87041L5.43935 3.85356L3.17678 3.53034L1.80638 4.90074L3.42251 5.87041ZM2.35356 10.3535C2.54882 10.1583 2.54882 9.8417 2.35356 9.64644C2.1583 9.45118 1.84171 9.45118 1.64645 9.64644L0.646451 10.6464C0.451188 10.8417 0.451188 11.1583 0.646451 11.3535C0.841713 11.5488 1.1583 11.5488 1.35356 11.3535L2.35356 10.3535ZM3.85358 11.8536C4.04884 11.6583 4.04885 11.3417 3.85359 11.1465C3.65833 10.9512 3.34175 10.9512 3.14648 11.1465L1.14645 13.1464C0.95119 13.3417 0.951187 13.6583 1.14645 13.8535C1.34171 14.0488 1.65829 14.0488 1.85355 13.8536L3.85358 11.8536ZM5.35356 13.3535C5.54882 13.1583 5.54882 12.8417 5.35356 12.6464C5.1583 12.4512 4.84171 12.4512 4.64645 12.6464L3.64645 13.6464C3.45119 13.8417 3.45119 14.1583 3.64645 14.3535C3.84171 14.5488 4.1583 14.5488 4.35356 14.3535L5.35356 13.3535ZM9.49997 6.74881C10.1897 6.74881 10.7488 6.1897 10.7488 5.5C10.7488 4.8103 10.1897 4.25118 9.49997 4.25118C8.81026 4.25118 8.25115 4.8103 8.25115 5.5C8.25115 6.1897 8.81026 6.74881 9.49997 6.74881Z"
        fill="currentColor"
      ></path>
    </symbol>
    <symbol viewBox="0 0 15 15" fill="none" id="moon">
      <path
        fill-rule="evenodd"
        clip-rule="evenodd"
        d="M2.89998 0.499976C2.89998 0.279062 2.72089 0.0999756 2.49998 0.0999756C2.27906 0.0999756 2.09998 0.279062 2.09998 0.499976V1.09998H1.49998C1.27906 1.09998 1.09998 1.27906 1.09998 1.49998C1.09998 1.72089 1.27906 1.89998 1.49998 1.89998H2.09998V2.49998C2.09998 2.72089 2.27906 2.89998 2.49998 2.89998C2.72089 2.89998 2.89998 2.72089 2.89998 2.49998V1.89998H3.49998C3.72089 1.89998 3.89998 1.72089 3.89998 1.49998C3.89998 1.27906 3.72089 1.09998 3.49998 1.09998H2.89998V0.499976ZM5.89998 3.49998C5.89998 3.27906 5.72089 3.09998 5.49998 3.09998C5.27906 3.09998 5.09998 3.27906 5.09998 3.49998V4.09998H4.49998C4.27906 4.09998 4.09998 4.27906 4.09998 4.49998C4.09998 4.72089 4.27906 4.89998 4.49998 4.89998H5.09998V5.49998C5.09998 5.72089 5.27906 5.89998 5.49998 5.89998C5.72089 5.89998 5.89998 5.72089 5.89998 5.49998V4.89998H6.49998C6.72089 4.89998 6.89998 4.72089 6.89998 4.49998C6.89998 4.27906 6.72089 4.09998 6.49998 4.09998H5.89998V3.49998ZM1.89998 6.49998C1.89998 6.27906 1.72089 6.09998 1.49998 6.09998C1.27906 6.09998 1.09998 6.27906 1.09998 6.49998V7.09998H0.499976C0.279062 7.09998 0.0999756 7.27906 0.0999756 7.49998C0.0999756 7.72089 0.279062 7.89998 0.499976 7.89998H1.09998V8.49998C1.09998 8.72089 1.27906 8.89997 1.49998 8.89997C1.72089 8.89997 1.89998 8.72089 1.89998 8.49998V7.89998H2.49998C2.72089 7.89998 2.89998 7.72089 2.89998 7.49998C2.89998 7.27906 2.72089 7.09998 2.49998 7.09998H1.89998V6.49998ZM8.54406 0.98184L8.24618 0.941586C8.03275 0.917676 7.90692 1.1655 8.02936 1.34194C8.17013 1.54479 8.29981 1.75592 8.41754 1.97445C8.91878 2.90485 9.20322 3.96932 9.20322 5.10022C9.20322 8.37201 6.82247 11.0878 3.69887 11.6097C3.45736 11.65 3.20988 11.6772 2.96008 11.6906C2.74563 11.702 2.62729 11.9535 2.77721 12.1072C2.84551 12.1773 2.91535 12.2458 2.98667 12.3128L3.05883 12.3795L3.31883 12.6045L3.50684 12.7532L3.62796 12.8433L3.81491 12.9742L3.99079 13.089C4.11175 13.1651 4.23536 13.2375 4.36157 13.3059L4.62496 13.4412L4.88553 13.5607L5.18837 13.6828L5.43169 13.7686C5.56564 13.8128 5.70149 13.8529 5.83857 13.8885C5.94262 13.9155 6.04767 13.9401 6.15405 13.9622C6.27993 13.9883 6.40713 14.0109 6.53544 14.0298L6.85241 14.0685L7.11934 14.0892C7.24637 14.0965 7.37436 14.1002 7.50322 14.1002C11.1483 14.1002 14.1032 11.1453 14.1032 7.50023C14.1032 7.25044 14.0893 7.00389 14.0623 6.76131L14.0255 6.48407C13.991 6.26083 13.9453 6.04129 13.8891 5.82642C13.8213 5.56709 13.7382 5.31398 13.6409 5.06881L13.5279 4.80132L13.4507 4.63542L13.3766 4.48666C13.2178 4.17773 13.0353 3.88295 12.8312 3.60423L12.6782 3.40352L12.4793 3.16432L12.3157 2.98361L12.1961 2.85951L12.0355 2.70246L11.8134 2.50184L11.4925 2.24191L11.2483 2.06498L10.9562 1.87446L10.6346 1.68894L10.3073 1.52378L10.1938 1.47176L9.95488 1.3706L9.67791 1.2669L9.42566 1.1846L9.10075 1.09489L8.83599 1.03486L8.54406 0.98184ZM10.4032 5.30023C10.4032 4.27588 10.2002 3.29829 9.83244 2.40604C11.7623 3.28995 13.1032 5.23862 13.1032 7.50023C13.1032 10.593 10.596 13.1002 7.50322 13.1002C6.63646 13.1002 5.81597 12.9036 5.08355 12.5522C6.5419 12.0941 7.81081 11.2082 8.74322 10.0416C8.87963 10.2284 9.10028 10.3497 9.34928 10.3497C9.76349 10.3497 10.0993 10.0139 10.0993 9.59971C10.0993 9.24256 9.84965 8.94373 9.51535 8.86816C9.57741 8.75165 9.63653 8.63334 9.6926 8.51332C9.88358 8.63163 10.1088 8.69993 10.35 8.69993C11.0403 8.69993 11.6 8.14028 11.6 7.44993C11.6 6.75976 11.0406 6.20024 10.3505 6.19993C10.3853 5.90487 10.4032 5.60464 10.4032 5.30023Z"
        fill="currentColor"
      ></path>
    </symbol>
    <symbol viewBox="0 0 20 20" fill="currentColor" class="size-5" id="menu">
      <path
        fill-rule="evenodd"
        d="M2 6.75A.75.75 0 0 1 2.75 6h14.5a.75.75 0 0 1 0 1.5H2.75A.75.75 0 0 1 2 6.75Zm0 6.5a.75.75 0 0 1 .75-.75h14.5a.75.75 0 0 1 0 1.5H2.75a.75.75 0 0 1-.75-.75Z"
        clip-rule="evenodd"
      ></path>
    </symbol>
    <symbol viewBox="0 0 15 15" fill="none" id="github-logo">
      <path
        fill-rule="evenodd"
        clip-rule="evenodd"
        d="M7.49933 0.25C3.49635 0.25 0.25 3.49593 0.25 7.50024C0.25 10.703 2.32715 13.4206 5.2081 14.3797C5.57084 14.446 5.70302 14.2222 5.70302 14.0299C5.70302 13.8576 5.69679 13.4019 5.69323 12.797C3.67661 13.235 3.25112 11.825 3.25112 11.825C2.92132 10.9874 2.44599 10.7644 2.44599 10.7644C1.78773 10.3149 2.49584 10.3238 2.49584 10.3238C3.22353 10.375 3.60629 11.0711 3.60629 11.0711C4.25298 12.1788 5.30335 11.8588 5.71638 11.6732C5.78225 11.205 5.96962 10.8854 6.17658 10.7043C4.56675 10.5209 2.87415 9.89918 2.87415 7.12104C2.87415 6.32925 3.15677 5.68257 3.62053 5.17563C3.54576 4.99226 3.29697 4.25521 3.69174 3.25691C3.69174 3.25691 4.30015 3.06196 5.68522 3.99973C6.26337 3.83906 6.8838 3.75895 7.50022 3.75583C8.1162 3.75895 8.73619 3.83906 9.31523 3.99973C10.6994 3.06196 11.3069 3.25691 11.3069 3.25691C11.7026 4.25521 11.4538 4.99226 11.3795 5.17563C11.8441 5.68257 12.1245 6.32925 12.1245 7.12104C12.1245 9.9063 10.4292 10.5192 8.81452 10.6985C9.07444 10.9224 9.30633 11.3648 9.30633 12.0413C9.30633 13.0102 9.29742 13.7922 9.29742 14.0299C9.29742 14.2239 9.42828 14.4496 9.79591 14.3788C12.6746 13.4179 14.75 10.7025 14.75 7.50024C14.75 3.49593 11.5036 0.25 7.49933 0.25Z"
        fill="currentColor"
      ></path>
    </symbol>
    <symbol viewBox="0 0 15 15" fill="none" id="gear">
      <path
        fill-rule="evenodd"
        clip-rule="evenodd"
        d="M7.07095 0.650238C6.67391 0.650238 6.32977 0.925096 6.24198 1.31231L6.0039 2.36247C5.6249 2.47269 5.26335 2.62363 4.92436 2.81013L4.01335 2.23585C3.67748 2.02413 3.23978 2.07312 2.95903 2.35386L2.35294 2.95996C2.0722 3.2407 2.0232 3.6784 2.23493 4.01427L2.80942 4.92561C2.62307 5.2645 2.47227 5.62594 2.36216 6.00481L1.31209 6.24287C0.924883 6.33065 0.650024 6.6748 0.650024 7.07183V7.92897C0.650024 8.32601 0.924883 8.67015 1.31209 8.75794L2.36228 8.99603C2.47246 9.375 2.62335 9.73652 2.80979 10.0755L2.2354 10.9867C2.02367 11.3225 2.07267 11.7602 2.35341 12.041L2.95951 12.6471C3.24025 12.9278 3.67795 12.9768 4.01382 12.7651L4.92506 12.1907C5.26384 12.377 5.62516 12.5278 6.0039 12.6379L6.24198 13.6881C6.32977 14.0753 6.67391 14.3502 7.07095 14.3502H7.92809C8.32512 14.3502 8.66927 14.0753 8.75705 13.6881L8.99505 12.6383C9.37411 12.5282 9.73573 12.3773 10.0748 12.1909L10.986 12.7653C11.3218 12.977 11.7595 12.928 12.0403 12.6473L12.6464 12.0412C12.9271 11.7604 12.9761 11.3227 12.7644 10.9869L12.1902 10.076C12.3768 9.73688 12.5278 9.37515 12.638 8.99596L13.6879 8.75794C14.0751 8.67015 14.35 8.32601 14.35 7.92897V7.07183C14.35 6.6748 14.0751 6.33065 13.6879 6.24287L12.6381 6.00488C12.528 5.62578 12.3771 5.26414 12.1906 4.92507L12.7648 4.01407C12.9766 3.6782 12.9276 3.2405 12.6468 2.95975L12.0407 2.35366C11.76 2.07292 11.3223 2.02392 10.9864 2.23565L10.0755 2.80989C9.73622 2.62328 9.37437 2.47229 8.99505 2.36209L8.75705 1.31231C8.66927 0.925096 8.32512 0.650238 7.92809 0.650238H7.07095ZM4.92053 3.81251C5.44724 3.44339 6.05665 3.18424 6.71543 3.06839L7.07095 1.50024H7.92809L8.28355 3.06816C8.94267 3.18387 9.5524 3.44302 10.0794 3.81224L11.4397 2.9547L12.0458 3.56079L11.1882 4.92117C11.5573 5.44798 11.8164 6.0575 11.9321 6.71638L13.5 7.07183V7.92897L11.932 8.28444C11.8162 8.94342 11.557 9.55301 11.1878 10.0798L12.0453 11.4402L11.4392 12.0462L10.0787 11.1886C9.55192 11.5576 8.94241 11.8166 8.28355 11.9323L7.92809 13.5002H7.07095L6.71543 11.932C6.0569 11.8162 5.44772 11.5572 4.92116 11.1883L3.56055 12.046L2.95445 11.4399L3.81213 10.0794C3.4431 9.55266 3.18403 8.94326 3.06825 8.2845L1.50002 7.92897V7.07183L3.06818 6.71632C3.18388 6.05765 3.44283 5.44833 3.81171 4.92165L2.95398 3.561L3.56008 2.95491L4.92053 3.81251ZM9.02496 7.50008C9.02496 8.34226 8.34223 9.02499 7.50005 9.02499C6.65786 9.02499 5.97513 8.34226 5.97513 7.50008C5.97513 6.65789 6.65786 5.97516 7.50005 5.97516C8.34223 5.97516 9.02496 6.65789 9.02496 7.50008ZM9.92496 7.50008C9.92496 8.83932 8.83929 9.92499 7.50005 9.92499C6.1608 9.92499 5.07513 8.83932 5.07513 7.50008C5.07513 6.16084 6.1608 5.07516 7.50005 5.07516C8.83929 5.07516 9.92496 6.16084 9.92496 7.50008Z"
        fill="currentColor"
      ></path>
    </symbol>
    <symbol viewBox="0 0 15 15" fill="none" id="external-link">
      <path
        fill-rule="evenodd"
        clip-rule="evenodd"
        d="M3 2C2.44772 2 2 2.44772 2 3V12C2 12.5523 2.44772 13 3 13H12C12.5523 13 13 12.5523 13 12V8.5C13 8.22386 12.7761 8 12.5 8C12.2239 8 12 8.22386 12 8.5V12H3V3L6.5 3C6.77614 3 7 2.77614 7 2.5C7 2.22386 6.77614 2 6.5 2H3ZM12.8536 2.14645C12.9015 2.19439 12.9377 2.24964 12.9621 2.30861C12.9861 2.36669 12.9996 2.4303 13 2.497L13 2.5V2.50049V5.5C13 5.77614 12.7761 6 12.5 6C12.2239 6 12 5.77614 12 5.5V3.70711L6.85355 8.85355C6.65829 9.04882 6.34171 9.04882 6.14645 8.85355C5.95118 8.65829 5.95118 8.34171 6.14645 8.14645L11.2929 3H9.5C9.22386 3 9 2.77614 9 2.5C9 2.22386 9.22386 2 9.5 2H12.4999H12.5C12.5678 2 12.6324 2.01349 12.6914 2.03794C12.7504 2.06234 12.8056 2.09851 12.8536 2.14645Z"
        fill="currentColor"
      ></path>
    </symbol>
    <symbol viewBox="0 0 15 15" fill="none" id="envelope-closed">
      <path
        fill-rule="evenodd"
        clip-rule="evenodd"
        d="M1 2C0.447715 2 0 2.44772 0 3V12C0 12.5523 0.447715 13 1 13H14C14.5523 13 15 12.5523 15 12V3C15 2.44772 14.5523 2 14 2H1ZM1 3L14 3V3.92494C13.9174 3.92486 13.8338 3.94751 13.7589 3.99505L7.5 7.96703L1.24112 3.99505C1.16621 3.94751 1.0826 3.92486 1 3.92494V3ZM1 4.90797V12H14V4.90797L7.74112 8.87995C7.59394 8.97335 7.40606 8.97335 7.25888 8.87995L1 4.90797Z"
        fill="currentColor"
      ></path>
    </symbol>
    <symbol viewBox="0 0 15 15" fill="none" id="cross-2">
      <path
        fill-rule="evenodd"
        clip-rule="evenodd"
        d="M11.7816 4.03157C12.0062 3.80702 12.0062 3.44295 11.7816 3.2184C11.5571 2.99385 11.193 2.99385 10.9685 3.2184L7.50005 6.68682L4.03164 3.2184C3.80708 2.99385 3.44301 2.99385 3.21846 3.2184C2.99391 3.44295 2.99391 3.80702 3.21846 4.03157L6.68688 7.49999L3.21846 10.9684C2.99391 11.193 2.99391 11.557 3.21846 11.7816C3.44301 12.0061 3.80708 12.0061 4.03164 11.7816L7.50005 8.31316L10.9685 11.7816C11.193 12.0061 11.5571 12.0061 11.7816 11.7816C12.0062 11.557 12.0062 11.193 11.7816 10.9684L8.31322 7.49999L11.7816 4.03157Z"
        fill="currentColor"
      ></path>
    </symbol>
    <symbol viewBox="0 0 15 15" fill="none" id="code">
      <path
        fill-rule="evenodd"
        clip-rule="evenodd"
        d="M9.96424 2.68571C10.0668 2.42931 9.94209 2.13833 9.6857 2.03577C9.4293 1.93322 9.13832 2.05792 9.03576 2.31432L5.03576 12.3143C4.9332 12.5707 5.05791 12.8617 5.3143 12.9642C5.5707 13.0668 5.86168 12.9421 5.96424 12.6857L9.96424 2.68571ZM3.85355 5.14646C4.04882 5.34172 4.04882 5.6583 3.85355 5.85356L2.20711 7.50001L3.85355 9.14646C4.04882 9.34172 4.04882 9.6583 3.85355 9.85356C3.65829 10.0488 3.34171 10.0488 3.14645 9.85356L1.14645 7.85356C0.951184 7.6583 0.951184 7.34172 1.14645 7.14646L3.14645 5.14646C3.34171 4.9512 3.65829 4.9512 3.85355 5.14646ZM11.1464 5.14646C11.3417 4.9512 11.6583 4.9512 11.8536 5.14646L13.8536 7.14646C14.0488 7.34172 14.0488 7.6583 13.8536 7.85356L11.8536 9.85356C11.6583 10.0488 11.3417 10.0488 11.1464 9.85356C10.9512 9.6583 10.9512 9.34172 11.1464 9.14646L12.7929 7.50001L11.1464 5.85356C10.9512 5.6583 10.9512 5.34172 11.1464 5.14646Z"
        fill="currentColor"
      ></path>
    </symbol>
    <symbol viewBox="0 0 15 15" fill="none" id="chevron-down">
      <path
        fill-rule="evenodd"
        clip-rule="evenodd"
        d="M3.13523 6.15803C3.3241 5.95657 3.64052 5.94637 3.84197 6.13523L7.5 9.56464L11.158 6.13523C11.3595 5.94637 11.6759 5.95657 11.8648 6.15803C12.0536 6.35949 12.0434 6.67591 11.842 6.86477L7.84197 10.6148C7.64964 10.7951 7.35036 10.7951 7.15803 10.6148L3.15803 6.86477C2.95657 6.67591 2.94637 6.35949 3.13523 6.15803Z"
        fill="currentColor"
      ></path>
    </symbol>
    <symbol viewBox="0 0 15 15" fill="none" id="check">
      <path
        fill-rule="evenodd"
        clip-rule="evenodd"
        d="M11.4669 3.72684C11.7558 3.91574 11.8369 4.30308 11.648 4.59198L7.39799 11.092C7.29783 11.2452 7.13556 11.3467 6.95402 11.3699C6.77247 11.3931 6.58989 11.3355 6.45446 11.2124L3.70446 8.71241C3.44905 8.48022 3.43023 8.08494 3.66242 7.82953C3.89461 7.57412 4.28989 7.55529 4.5453 7.78749L6.75292 9.79441L10.6018 3.90792C10.7907 3.61902 11.178 3.53795 11.4669 3.72684Z"
        fill="currentColor"
      ></path>
    </symbol>
  </defs>
</svg>
