<svg
  width="512"
  height="512"
  viewBox="0 0 512 512"
  fill="none"
  xmlns="http://www.w3.org/2000/svg"
>
  <style>
    path {
      fill: #514671;
    }
    @media (prefers-color-scheme: dark) {
      path {
        fill: #9687ae;
      }
    }
  </style>
  <path
    d="M122.38 68.6299C126.27 66.3837 131.063 66.3837 134.954 68.6298L177.517 93.2035C181.407 95.4496 183.804 99.6007 183.804 104.093V153.24C183.804 157.733 181.407 161.884 177.517 164.13L134.954 188.703C131.063 190.95 126.27 190.95 122.38 188.703L79.8168 164.13C75.9263 161.884 73.5297 157.733 73.5297 153.24V104.093C73.5297 99.6007 75.9263 95.4496 79.8168 93.2035L122.38 68.6299Z"
    fill="red"
  />
  <path
    d="M249.713 68.6299C253.603 66.3837 258.397 66.3837 262.287 68.6298L304.85 93.2035C308.74 95.4496 311.137 99.6007 311.137 104.093V153.24C311.137 157.733 308.74 161.884 304.85 164.13L262.287 188.703C258.397 190.95 253.603 190.95 249.713 188.703L207.15 164.13C203.26 161.884 200.863 157.733 200.863 153.24V104.093C200.863 99.6007 203.26 95.4496 207.15 93.2035L249.713 68.6299Z"
    fill="#9687AE"
  />
  <path
    d="M186.046 195.963C189.937 193.717 194.73 193.717 198.62 195.963L241.183 220.537C245.074 222.783 247.47 226.934 247.47 231.426V280.574C247.47 285.066 245.074 289.217 241.183 291.463L198.62 316.037C194.73 318.283 189.937 318.283 186.046 316.037L143.483 291.463C139.593 289.217 137.196 285.066 137.196 280.574V231.426C137.196 226.934 139.593 222.783 143.483 220.537L186.046 195.963Z"
    fill="#9687AE"
  />
  <path
    d="M377.046 68.6299C380.937 66.3837 385.73 66.3837 389.62 68.6298L432.183 93.2035C436.074 95.4496 438.47 99.6007 438.47 104.093V153.24C438.47 157.733 436.074 161.884 432.183 164.13L389.62 188.703C385.73 190.95 380.937 190.95 377.046 188.703L334.484 164.13C330.593 161.884 328.196 157.733 328.196 153.24V104.093C328.196 99.6007 330.593 95.4496 334.484 93.2035L377.046 68.6299Z"
    fill="#9687AE"
  />
  <path
    d="M313.38 195.963C317.27 193.717 322.063 193.717 325.954 195.963L368.517 220.537C372.407 222.783 374.804 226.934 374.804 231.426V280.574C374.804 285.066 372.407 289.217 368.517 291.463L325.954 316.037C322.063 318.283 317.27 318.283 313.38 316.037L270.817 291.463C266.926 289.217 264.53 285.066 264.53 280.574V231.426C264.53 226.934 266.926 222.783 270.817 220.537L313.38 195.963Z"
    fill="#9687AE"
  />
  <path
    d="M249.713 323.297C253.603 321.05 258.397 321.05 262.287 323.297L304.85 347.87C308.74 350.116 311.137 354.267 311.137 358.76V407.907C311.137 412.399 308.74 416.55 304.85 418.797L262.287 443.37C258.397 445.616 253.603 445.616 249.713 443.37L207.15 418.797C203.26 416.55 200.863 412.399 200.863 407.907V358.76C200.863 354.267 203.26 350.116 207.15 347.87L249.713 323.297Z"
    fill="#9687AE"
  />
</svg>
